<?xml version="1.0" standalone="no"?><!DOCTYPE svg PUBLIC "-//W3C//DTD SVG 1.1//EN" "http://www.w3.org/Graphics/SVG/1.1/DTD/svg11.dtd"><svg class="icon" width="200px" height="200.00px" viewBox="0 0 1024 1024" version="1.1" xmlns="http://www.w3.org/2000/svg"><path fill="#ffffff" d="M874.4 836.4L724 693.6c50.4-58.4 81.6-134 81.6-217.2 0-182.8-148.8-331.6-331.6-331.6s-331.6 148.8-331.6 331.6S291.2 808 474 808c82 0 157.2-30.4 215.2-80l151.6 143.6c4.8 4.4 10.8 6.8 16.8 6.8 6.4 0 13.2-2.4 18-7.6 9.2-9.2 8.8-24.8-1.2-34.4z m-400.8-77.2c-155.6 0-282.4-126.8-282.4-282.4s126.8-282.4 282.4-282.4S756 320.8 756 476.8s-126.4 282.4-282.4 282.4z"  /></svg>